<svg xmlns="http://www.w3.org/2000/svg" width="122.87" height="63.611" viewBox="0 0 122.87 63.611">
  <g id="about-us" transform="translate(0 0.021)">
    <path id="Path_11" data-name="Path 11" d="M93.62,42.31l1.92-.05,1.6-.04c-1.87-5.74-1.24-11.01,3.24-15.49a10.035,10.035,0,0,0,5.37,5.99,28.2,28.2,0,0,1,4.03,3.71c.23-.95-.64-2.1-1.71-3.29a5.228,5.228,0,0,1,2.54,2.48,6.822,6.822,0,0,1,.49,4.45,9.464,9.464,0,0,1-.57,2.14h2.65c2.8-6,1.02-14.9-4.71-18.67-1.76-1.15-3.02-1.11-5.08-1.11-2.36,0-3.57.07-5.59,1.41-2.98,1.97-4.81,5.38-5.58,10.12-.15,2.37-.26,6.45,1.4,8.35ZM0,63.58c.23-6.48,10.11-6.74,16.17-10.52l4.06,10.52Zm28.44-3.56h.8a1.314,1.314,0,0,0,1.31-1.31V56.59a1.314,1.314,0,0,0-1.31-1.31H24.5a1.314,1.314,0,0,0-1.31,1.31v2.12a1.314,1.314,0,0,0,1.31,1.31h.81l-.7,3.56h4.51l-.68-3.56ZM20.15,48.49c.15-1.23-3.48-5.28-4.15-7.52-1.42-2.26-1.93-4.61-.38-7,.62-.95.36-3.52.36-4.83,0-13,22.78-13.01,22.78,0,0,1.64-.38,3.78.51,5.08,1.49,2.16.72,4.75-.54,6.76-.8,2.36-4.61,6.18-4.35,7.52.23,6.66-14.28,6.44-14.23-.01Zm37.47-2.55,5.7,16.75,2.87-9.94-1.41-1.53a2.314,2.314,0,0,1-.42-2.43c.76-1.5,2.33-1.23,3.8-1.23,1.54,0,3.45-.29,3.93,1.64a2.577,2.577,0,0,1-.49,2.02l-1.41,1.53,2.87,9.94,5.16-16.75c6.71,6.05,20.24,2.51,21.88,17.64H33.94c1.72-15.94,16.91-11.54,23.68-17.64ZM52.97,23.76a7.408,7.408,0,0,0,1.49,3.61l.02.02h0l3.19,5.06a26.773,26.773,0,0,0,4.26,5.59,8.581,8.581,0,0,0,6.01,2.42,8.848,8.848,0,0,0,6.36-2.53,28.078,28.078,0,0,0,4.38-5.97l3.58-5.89c.73-1.66.95-2.67.71-3.16-.13-.28-.63-.38-1.43-.34a3.571,3.571,0,0,1-1.96-.06l1.45-5.56C69.8,18.11,63.48,7.6,55.48,15.59l1.06,6.58c-1.3.27-3.65-.57-3.57,1.59ZM83.2,20.67A2.546,2.546,0,0,1,84.83,22c.54,1.08.32,2.68-.69,4.98h0l-.06.12-3.63,5.97a29.982,29.982,0,0,1-4.74,6.42,10.789,10.789,0,0,1-7.79,3.09,10.61,10.61,0,0,1-7.42-2.97,28.67,28.67,0,0,1-4.62-6.02L52.7,28.53a9.394,9.394,0,0,1-1.83-4.7,3.77,3.77,0,0,1,.33-1.73,3.286,3.286,0,0,1,1.15-1.34,4.394,4.394,0,0,1,.84-.42,78.247,78.247,0,0,1-.13-8.95,12.563,12.563,0,0,1,.39-2.07,12.231,12.231,0,0,1,5.38-6.86,14.7,14.7,0,0,1,2.9-1.41C67.85-1.16,75.95.04,80.29,4.74a12.349,12.349,0,0,1,3.12,7.81l-.21,8.12Zm17.72,32.55,1.43-4.98-.7-.77a1.16,1.16,0,0,1-.21-1.21c.38-.75,1.17-.61,1.9-.61.77,0,1.72-.15,1.96.82a1.308,1.308,0,0,1-.24,1.01l-.7.77,1.43,4.98-2.44,1.93-2.43-1.94Zm12.83-1.73a24.355,24.355,0,0,0-4.07-5.76,51.316,51.316,0,0,1,8.39,3.76,6.856,6.856,0,0,1,2.79,2.7c1.25,2.35,1.39,4.45,1.57,7l.44,4.4H105.22a29.559,29.559,0,0,0-1.74-5.98c3.04-3.02,6.3-5.46,10.27-6.12ZM92.1,47.69c1.69-.74,3.43-1.38,4.95-1.96a27.666,27.666,0,0,0-2.39,2.94c-.81-.34-1.67-.67-2.56-.98Z" fill="rgba(51,37,106,0.98)" fill-rule="evenodd"/>
  </g>
</svg>
