<svg id="goal" xmlns="http://www.w3.org/2000/svg" width="122.88" height="113.53" viewBox="0 0 122.88 113.53">
  <path id="Path_10" data-name="Path 10" d="M51.66,10.21h0a51.626,51.626,0,0,1,14.65,2.11q1.11.33,2.25.72,1.26.435,2.49.93l-3.38,6.21a44.487,44.487,0,0,0-16-2.95h-.01a44.462,44.462,0,0,0-17.37,3.51c-.87.37-1.73.76-2.56,1.18A44.733,44.733,0,0,0,20.11,30.3h0l-.02.02a42.836,42.836,0,0,0-3.18,3.55,47.013,47.013,0,0,0-2.81,3.9,44.293,44.293,0,0,0-7.08,24.1v.01h0a44.462,44.462,0,0,0,3.51,17.37c.37.87.76,1.73,1.18,2.56A44.7,44.7,0,0,0,20.1,93.43h0l.02.02a44.837,44.837,0,0,0,3.55,3.19,47.013,47.013,0,0,0,3.9,2.81,44.464,44.464,0,0,0,24.09,7.05h.01a44.462,44.462,0,0,0,17.37-3.51c.87-.37,1.73-.76,2.56-1.18a44.733,44.733,0,0,0,11.62-8.38h.01l.03-.03a44.573,44.573,0,0,0,3.18-3.54,47.013,47.013,0,0,0,2.81-3.9A44.362,44.362,0,0,0,96.3,61.9l7.01-1.08c.01.35.01.7.01,1.05v.01h0a51.5,51.5,0,0,1-4.06,20.1c-.42,1-.88,1.99-1.37,2.97a51.8,51.8,0,0,1-9.7,13.45h0l-.02.02a51.6,51.6,0,0,1-36.5,15.11h0a51.5,51.5,0,0,1-20.1-4.06c-1-.42-1.99-.88-2.97-1.37a51.8,51.8,0,0,1-13.45-9.7h0l-.02-.03A51.7,51.7,0,0,1,0,61.87v-.01H0a51.539,51.539,0,0,1,4.06-20.1c.42-1,.88-1.99,1.37-2.97a51.8,51.8,0,0,1,9.7-13.45h0l.02-.02a53.272,53.272,0,0,1,4.11-3.69,51.584,51.584,0,0,1,32.4-11.42Zm4.22,49.33L88.3,0l4.19,33.81L122.88,49.2l-67,10.34ZM51.66,45.52h.01a16.41,16.41,0,0,1,2.12.14L49.96,52.7a8.973,8.973,0,0,0-1.93.58c-.18.08-.36.16-.54.25a9.343,9.343,0,0,0-2.43,1.75h0l-.02.02c-.23.23-.44.47-.65.72a8.131,8.131,0,0,0-.59.82,9.3,9.3,0,0,0-1.47,5.03v.01h0a9.165,9.165,0,0,0,.74,3.63c.08.19.16.37.25.54a9.343,9.343,0,0,0,1.75,2.43h0l.02.02a8.8,8.8,0,0,0,.72.65,8.13,8.13,0,0,0,.82.59,9.3,9.3,0,0,0,5.03,1.47h0a9.336,9.336,0,0,0,3.63-.73c.19-.08.36-.16.54-.25a9.343,9.343,0,0,0,2.43-1.75h0l.02-.02c.13-.13.25-.26.36-.38s.22-.26.33-.4l8.41-1.3a14.786,14.786,0,0,1-.66,1.87c-.13.31-.28.63-.43.94a16.239,16.239,0,0,1-3.07,4.26h0l-.03.02c-.41.4-.83.79-1.28,1.15a16.31,16.31,0,0,1-10.25,3.61h0a16.2,16.2,0,0,1-6.36-1.29c-.31-.13-.63-.28-.94-.43a16.239,16.239,0,0,1-4.26-3.07h0l-.03-.03a15.636,15.636,0,0,1-1.15-1.28,16.31,16.31,0,0,1-3.61-10.25v-.01h0a16.2,16.2,0,0,1,1.29-6.36c.13-.31.28-.63.43-.94a16.189,16.189,0,0,1,3.07-4.25h0a16.8,16.8,0,0,1,2.74-2.2,16.133,16.133,0,0,1,8.82-2.6Zm0-17.8h0a33.775,33.775,0,0,1,8.83,1.16c.46.12.91.25,1.36.4.24.08.49.16.73.24l-3.42,6.29a27.3,27.3,0,0,0-7.51-1.05h0a27.131,27.131,0,0,0-10.56,2.13q-.765.33-1.56.72l-.04.02a27.151,27.151,0,0,0-7.02,5.08h0l-.02.02a28.167,28.167,0,0,0-1.93,2.15,28.493,28.493,0,0,0-1.71,2.37,27.014,27.014,0,0,0-4.28,14.64v.01h0a27.131,27.131,0,0,0,2.13,10.56q.33.795.72,1.56a27.192,27.192,0,0,0,5.1,7.06h0a27.3,27.3,0,0,0,4.54,3.66A27.169,27.169,0,0,0,51.66,89h.01a27.131,27.131,0,0,0,10.56-2.13q.795-.33,1.56-.72a27.192,27.192,0,0,0,7.06-5.1h0a26.523,26.523,0,0,0,1.95-2.17,28.494,28.494,0,0,0,1.71-2.37,26.948,26.948,0,0,0,4.15-11.89l7.12-1.1a34.227,34.227,0,0,1-2.64,11.64c-.28.66-.58,1.32-.91,1.96a34.116,34.116,0,0,1-6.41,8.89h0l-.02.02c-.86.86-1.77,1.67-2.71,2.44a33.118,33.118,0,0,1-2.98,2.15,34.062,34.062,0,0,1-18.43,5.4h0a34.171,34.171,0,0,1-13.29-2.68c-.66-.28-1.32-.58-1.96-.91a34.116,34.116,0,0,1-8.89-6.41h0l-.02-.03a34.524,34.524,0,0,1-4.58-5.69,33.952,33.952,0,0,1-5.4-18.43v-.01h0a34,34,0,0,1,2.69-13.29c.28-.66.58-1.32.91-1.96a34.116,34.116,0,0,1,6.41-8.89h0l.02-.02a34.525,34.525,0,0,1,5.69-4.58,33.8,33.8,0,0,1,18.4-5.4Z" fill="rgba(51,37,106,0.98)"/>
</svg>
