<svg xmlns="http://www.w3.org/2000/svg" width="113.022" height="122.883" viewBox="0 0 113.022 122.883">
  <g id="innovation" transform="translate(0.001 0.001)">
    <path id="Path_12" data-name="Path 12" d="M70.12,40.96l2.86,2.86a1.95,1.95,0,0,1,0,2.74l-2.31,2.31a15.331,15.331,0,0,1,1.43,3.81h2.99a1.942,1.942,0,0,1,1.94,1.94v4.05a1.942,1.942,0,0,1-1.94,1.94H71.83a15.385,15.385,0,0,1-1.69,3.71l2.11,2.11a1.95,1.95,0,0,1,0,2.74l-2.86,2.86a1.95,1.95,0,0,1-2.74,0l-2.3-2.3a15.255,15.255,0,0,1-3.82,1.43v2.99a1.942,1.942,0,0,1-1.94,1.94H54.54a1.942,1.942,0,0,1-1.94-1.94V70.89a15.385,15.385,0,0,1-3.71-1.69L46.8,71.3a1.95,1.95,0,0,1-2.74,0L41.2,68.44a1.95,1.95,0,0,1,0-2.74l2.3-2.3a15.331,15.331,0,0,1-1.43-3.81H39.08a1.948,1.948,0,0,1-1.94-1.94V53.6a1.942,1.942,0,0,1,1.94-1.94h3.26a15.385,15.385,0,0,1,1.69-3.71l-2.11-2.11a1.95,1.95,0,0,1,0-2.74l2.86-2.86a1.95,1.95,0,0,1,2.74,0l2.31,2.31a15.331,15.331,0,0,1,3.81-1.43V38.13a1.942,1.942,0,0,1,1.94-1.94h4.05a1.942,1.942,0,0,1,1.94,1.94v3.26a15.385,15.385,0,0,1,3.71,1.69l2.11-2.11a1.911,1.911,0,0,1,2.73-.01ZM44.13,102.07a2.271,2.271,0,0,1-.48-4.5c-1.3-7.37-4.85-11.43-8.6-15.72-2.92-3.34-5.95-6.81-8.34-11.92a36,36,0,0,1-3.6-15.63,36.7,36.7,0,0,1,4.4-16.71c.02-.04.04-.07.06-.11h0A31.719,31.719,0,0,1,43.04,23.96a34.261,34.261,0,0,1,16.1-2.3A37.084,37.084,0,0,1,74.51,26.6,31.721,31.721,0,0,1,87.93,41.81a33.693,33.693,0,0,1,2.54,11.82,34.183,34.183,0,0,1-2.61,13.88c-2.66,6.59-6.18,10.68-9.47,14.51-3.03,3.53-5.85,6.81-7.42,11.84a2.271,2.271,0,0,1-.21,4.46l-.76.11q-.21,1.635-.27,3.51l.25-.04a2.271,2.271,0,1,1,.62,4.5l-.78.11.03.45h0a18.063,18.063,0,0,1,.03,2.54l.13-.02a2.277,2.277,0,1,1,.56,4.52l-1.68.21a13.61,13.61,0,0,1-5.87,6.94,12.774,12.774,0,0,1-5.61,1.71,11.634,11.634,0,0,1-5.78-1.13,12.191,12.191,0,0,1-5.29-5.14,2.284,2.284,0,0,1-1.23-1.75,2.2,2.2,0,0,1,.07-.89,20.737,20.737,0,0,1-.87-3.83l-.07.01a2.271,2.271,0,0,1-.62-4.5l.54-.08q.045-1.83-.03-3.48ZM2.18,58.86a2.116,2.116,0,1,1-.13-4.23l8.7-.3a2.116,2.116,0,1,1,.13,4.23l-8.7.3Zm108.51-8.61a2.116,2.116,0,0,1,.43,4.21l-8.66.91a2.116,2.116,0,1,1-.43-4.21l8.66-.91ZM94.92,14.78a2.112,2.112,0,0,1,3.51,2.35l-4.84,7.24a2.112,2.112,0,0,1-3.51-2.35l4.84-7.24ZM57.63,2.06a2.111,2.111,0,0,1,4.22.1l-.22,8.7a2.111,2.111,0,0,1-4.22-.1l.22-8.7ZM13.88,15.53a2.116,2.116,0,0,1,2.88-3.1l6.37,5.94a2.116,2.116,0,0,1-2.88,3.1l-6.37-5.94Zm34,81.43,18.49-2.63c1.59-6.7,5.05-10.73,8.8-15.08,3.08-3.58,6.36-7.4,8.76-13.34a30.1,30.1,0,0,0,2.31-12.19A29.269,29.269,0,0,0,84,43.38,27.49,27.49,0,0,0,72.35,30.23a32.557,32.557,0,0,0-13.59-4.37,30.126,30.126,0,0,0-14.13,2.02A27.526,27.526,0,0,0,31.24,39.6a32.5,32.5,0,0,0-3.9,14.73,31.714,31.714,0,0,0,3.2,13.8c2.13,4.56,4.97,7.8,7.69,10.92,4.24,4.86,8.25,9.45,9.65,17.91Zm17.74,2.07-17.27,2.45c.05,1.1.07,2.25.05,3.47l17.05-2.42c.02-1.23.07-2.4.17-3.5Zm-17.13,10.5a16.475,16.475,0,0,0,.53,2.54l16.55-2.04a13.065,13.065,0,0,0,.05-2.74h0v-.02l-.01-.17-17.12,2.43Zm2.88,6.84a7.269,7.269,0,0,0,2.1,1.55,7.433,7.433,0,0,0,3.67.72,8.5,8.5,0,0,0,3.74-1.15,9.169,9.169,0,0,0,2.88-2.65l-12.39,1.53Zm5.72-68.2a7.96,7.96,0,1,1-7.96,7.96,7.962,7.962,0,0,1,7.96-7.96Z" fill="rgba(51,37,106,0.98)" fill-rule="evenodd"/>
  </g>
</svg>
