<svg id="Layer_1" data-name="Layer 1" xmlns="http://www.w3.org/2000/svg" viewBox="0 0 270.45 305.64"><defs><style>.cls-1{fill:#33256a;}.cls-2{fill:#00bfdf;}.cls-3{fill:#7670b3;}</style></defs><path class="cls-1" d="M151.93,276.88h8.94a.58.58,0,1,1,0,1.15h-3.59v12.4a.68.68,0,0,1-1.36,0V278h-4a.58.58,0,1,1,0-1.15" transform="translate(-151.28 -215.65)"/><path class="cls-1" d="M176.43,277.74v12.73a.68.68,0,0,1-1.35,0v-11.2l-4.46,11.4a.74.74,0,0,1-1.32,0l-4.44-11.4v11.24a.64.64,0,0,1-1.28,0V277.74c0-1.15,1.69-1.15,2.1-.08l4.41,11.28,4.24-11.28c.41-1.07,2.1-1.07,2.1.08" transform="translate(-151.28 -215.65)"/><path class="cls-2" d="M219.28,322.92s-43.78,35.14-5,84.5,72.14,83.24-8,113.77c0,0,89,5,73.14-57.72s-69.66-62.75-60.21-140.55" transform="translate(-151.28 -215.65)"/><path class="cls-2" d="M289.93,489s11.94-36-25.37-80.31-45.28-73.2-28.86-94.95,63.68-29.7,72.14-15.48c0,0-40.3,3.77-51.24,30.54s36.31,74.87,36.31,74.87,41.8,45.6-3,85.33" transform="translate(-151.28 -215.65)"/><path class="cls-3" d="M266.88,325.31c-.07.09,26.76.29,26.76.29A139.21,139.21,0,0,1,331,330.33a81.34,81.34,0,0,1,29.45,14.72,67.16,67.16,0,0,1,19.45,26.12q7,16.13,7,38.56,0,22.8-7.89,38.74a69.93,69.93,0,0,1-21.56,25.95,93.25,93.25,0,0,1-32.08,14.72,156.69,156.69,0,0,1-39.09,4.73s-4.63,17.11-31.82,27.42h49.11a133.51,133.51,0,0,0,41.13-6.77A119.88,119.88,0,0,0,382.82,494a106.26,106.26,0,0,0,28-34.66q10.88-21,10.87-49.64,0-28.35-9.45-49.31a100.74,100.74,0,0,0-25.22-34.82A103.55,103.55,0,0,0,350.83,305c-8.9-2.94-15.46-4.52-18.05-4.83,0,0-57,8.2-65.9,25.19" transform="translate(-151.28 -215.65)"/><path class="cls-2" d="M275.22,248.41a32.76,32.76,0,1,1-32.76-32.76,32.76,32.76,0,0,1,32.76,32.76" transform="translate(-151.28 -215.65)"/></svg>